<svg xmlns="http://www.w3.org/2000/svg" xmlns:xlink="http://www.w3.org/1999/xlink" width="500" zoomAndPan="magnify" viewBox="0 0 375 374.999991" height="500" preserveAspectRatio="xMidYMid meet" version="1.2"><defs><clipPath id="4d71ee4b1e"><path d="M 1 133 L 374 133 L 374 242.15625 L 1 242.15625 Z M 1 133 "/></clipPath></defs><g id="de26ac53f7"><g clip-rule="nonzero" clip-path="url(#4d71ee4b1e)"><path style=" stroke:none;fill-rule:nonzero;fill:#cb6ce6;fill-opacity:1;" d="M 11.695312 237.421875 C 18.855469 235.738281 26.050781 234.179688 33.171875 232.34375 C 65.25 224.0625 97.234375 215.414062 129.394531 207.476562 C 149.320312 202.558594 169.472656 198.503906 189.59375 194.433594 C 195.921875 193.152344 202.480469 192.949219 208.949219 192.5 C 210.894531 192.363281 212.953125 192.871094 214.859375 193.429688 C 217.828125 194.300781 218.871094 196.894531 217.085938 199.597656 C 215.507812 201.984375 213.597656 204.324219 211.355469 206.070312 C 204.550781 211.375 197.519531 216.382812 190.570312 221.496094 C 189.199219 222.507812 187.832031 223.539062 186.378906 224.425781 C 185.898438 224.71875 185.160156 224.578125 184.535156 224.636719 C 184.738281 223.976562 184.726562 223.03125 185.171875 222.699219 C 188.960938 219.890625 192.890625 217.277344 196.660156 214.441406 C 201.628906 210.707031 206.542969 206.894531 211.367188 202.96875 C 212.820312 201.789062 214.050781 200.246094 215.078125 198.671875 C 215.960938 197.316406 215.800781 195.714844 213.808594 195.550781 C 210.046875 195.238281 206.21875 194.769531 202.5 195.148438 C 179.605469 197.496094 157.339844 203.125 135.144531 208.882812 C 99.988281 218.007812 64.953125 227.578125 29.824219 236.796875 C 22.019531 238.847656 14.042969 240.242188 6.136719 241.890625 C 5.28125 242.070312 4.304688 242.136719 3.472656 241.914062 C 1.164062 241.304688 0.582031 239.230469 2.3125 237.601562 C 3.390625 236.589844 4.6875 235.699219 6.042969 235.117188 C 17.53125 230.179688 28.902344 224.921875 40.59375 220.511719 C 102.101562 197.320312 165.0625 178.765625 228.625 162.15625 C 263.253906 153.105469 297.992188 144.574219 333.316406 138.648438 C 344.652344 136.746094 356 134.902344 367.351562 133.105469 C 370.242188 132.648438 372.167969 133.789062 372.902344 136.03125 C 373.761719 138.65625 372.269531 141.15625 369.152344 141.761719 C 364.347656 142.699219 359.480469 143.3125 354.667969 144.214844 C 332.367188 148.398438 310.078125 152.640625 287.78125 156.84375 C 217.160156 170.15625 148.011719 189.085938 79.761719 211.425781 C 58 218.550781 36.363281 226.046875 15.269531 235.007812 C 13.992188 235.550781 12.75 236.171875 11.492188 236.753906 C 11.558594 236.976562 11.625 237.199219 11.695312 237.421875 Z M 11.695312 237.421875 "/></g><path style=" stroke:none;fill-rule:nonzero;fill:#cb6ce6;fill-opacity:1;" d="M 180.242188 232.496094 C 178 232.425781 176.140625 230.417969 176.21875 228.148438 C 176.300781 225.824219 178.203125 224.058594 180.53125 224.144531 C 182.894531 224.226562 184.613281 226.078125 184.523438 228.4375 C 184.433594 230.765625 182.53125 232.570312 180.242188 232.496094 Z M 180.242188 232.496094 "/></g></svg>